<svg width="262" height="36" viewBox="0 0 262 36" fill="none" xmlns="http://www.w3.org/2000/svg">
<path d="M20.5089 35H0.780938V0.727998H20.5089V6.68H8.02894V14.216H19.6449V20.168H8.02894V29H20.5089V35ZM42.1363 35L33.8803 8.12H33.6883C33.7203 8.76 33.7683 9.72 33.8323 11C33.8963 12.28 33.9603 13.656 34.0243 15.128C34.0883 16.568 34.1203 17.88 34.1203 19.064V35H27.6403V0.727998H37.5283L45.6403 26.936H45.7843L54.3763 0.727998H64.2643V35H57.4963V18.776C57.4963 17.688 57.5123 16.44 57.5443 15.032C57.6083 13.624 57.6563 12.296 57.6883 11.048C57.7523 9.768 57.8003 8.808 57.8323 8.168H57.6403L48.8083 35H42.1363ZM104.026 17.816C104.026 21.368 103.434 24.472 102.25 27.128C101.098 29.752 99.3216 31.8 96.9216 33.272C94.5216 34.744 91.4496 35.48 87.7056 35.48C83.9936 35.48 80.9216 34.744 78.4896 33.272C76.0896 31.8 74.2976 29.736 73.1136 27.08C71.9616 24.424 71.3856 21.32 71.3856 17.768C71.3856 14.216 71.9616 11.128 73.1136 8.504C74.2976 5.88 76.0896 3.848 78.4896 2.408C80.9216 0.935999 84.0096 0.199999 87.7536 0.199999C91.4656 0.199999 94.5216 0.935999 96.9216 2.408C99.3216 3.848 101.098 5.896 102.25 8.552C103.434 11.176 104.026 14.264 104.026 17.816ZM79.0176 17.816C79.0176 21.4 79.7056 24.232 81.0816 26.312C82.4576 28.36 84.6656 29.384 87.7056 29.384C90.8096 29.384 93.0336 28.36 94.3776 26.312C95.7216 24.232 96.3936 21.4 96.3936 17.816C96.3936 14.2 95.7216 11.368 94.3776 9.32C93.0336 7.272 90.8256 6.248 87.7536 6.248C84.6816 6.248 82.4576 7.272 81.0816 9.32C79.7056 11.368 79.0176 14.2 79.0176 17.816ZM122.872 35H115.624V6.776H106.312V0.727998H132.184V6.776H122.872V35ZM157.196 35H137.468V0.727998H157.196V6.68H144.716V14.216H156.332V20.168H144.716V29H157.196V35Z" fill="white"/>
<path d="M164.328 0.727998H174.984C179.56 0.727998 183.016 1.368 185.352 2.648C187.688 3.928 188.856 6.184 188.856 9.416C188.856 11.368 188.392 13.016 187.464 14.36C186.568 15.704 185.272 16.52 183.576 16.808V17.048C184.728 17.272 185.768 17.672 186.696 18.248C187.624 18.824 188.36 19.656 188.904 20.744C189.448 21.832 189.72 23.272 189.72 25.064C189.72 28.168 188.6 30.6 186.36 32.36C184.12 34.12 181.048 35 177.144 35H164.328V0.727998ZM171.576 14.312H175.8C177.912 14.312 179.368 13.976 180.168 13.304C181 12.632 181.416 11.656 181.416 10.376C181.416 9.064 180.936 8.12 179.976 7.544C179.016 6.968 177.496 6.68 175.416 6.68H171.576V14.312ZM171.576 20.072V29H176.328C178.504 29 180.024 28.584 180.888 27.752C181.752 26.888 182.184 25.752 182.184 24.344C182.184 23.064 181.736 22.04 180.84 21.272C179.976 20.472 178.392 20.072 176.088 20.072H171.576ZM227.682 17.816C227.682 21.368 227.09 24.472 225.906 27.128C224.754 29.752 222.978 31.8 220.578 33.272C218.178 34.744 215.106 35.48 211.362 35.48C207.65 35.48 204.578 34.744 202.146 33.272C199.746 31.8 197.954 29.736 196.77 27.08C195.618 24.424 195.042 21.32 195.042 17.768C195.042 14.216 195.618 11.128 196.77 8.504C197.954 5.88 199.746 3.848 202.146 2.408C204.578 0.935999 207.666 0.199999 211.41 0.199999C215.122 0.199999 218.178 0.935999 220.578 2.408C222.978 3.848 224.754 5.896 225.906 8.552C227.09 11.176 227.682 14.264 227.682 17.816ZM202.674 17.816C202.674 21.4 203.362 24.232 204.738 26.312C206.114 28.36 208.322 29.384 211.362 29.384C214.466 29.384 216.69 28.36 218.034 26.312C219.378 24.232 220.05 21.4 220.05 17.816C220.05 14.2 219.378 11.368 218.034 9.32C216.69 7.272 214.482 6.248 211.41 6.248C208.338 6.248 206.114 7.272 204.738 9.32C203.362 11.368 202.674 14.2 202.674 17.816ZM261.539 35H253.235L245.267 22.04L237.299 35H229.523L240.899 17.336L230.243 0.727998H238.259L245.651 13.064L252.899 0.727998H260.723L249.971 17.72L261.539 35Z" fill="#7289DA"/>
</svg>
